HIERARCHY
ROOT Hips
{
	OFFSET 0.000000 0.000000 0.000000
	CHANNELS 6 Xposition Yposition Zposition Zrotation Yrotation Xrotation 
	JOINT LHipJoint
	{
		OFFSET 0.000000 0.000000 0.000000
		CHANNELS 3 Zrotation Yrotation Xrotation
		JOINT LeftUpLeg
		{
			OFFSET 1.363060 -1.794630 0.839290
			CHANNELS 3 Zrotation Yrotation Xrotation
			JOINT LeftLeg
			{
				OFFSET 2.448110 -6.726130 0.000000
				CHANNELS 3 Zrotation Yrotation Xrotation
				JOINT LeftFoot
				{
					OFFSET 2.562200 -7.039590 0.000000
					CHANNELS 3 Zrotation Yrotation Xrotation
					JOINT LeftToeBase
					{
						OFFSET 0.157640 -0.433110 2.322550
						CHANNELS 3 Zrotation Yrotation Xrotation
						End Site
						{
							OFFSET 0.000000 0.000000 0.000000
						}
					}
				}
			}
		}
	}
	JOINT RHipJoint
	{
		OFFSET 0.000000 0.000000 0.000000
		CHANNELS 3 Zrotation Yrotation Xrotation
		JOINT RightUpLeg
		{
			OFFSET -1.305520 -1.794630 0.839290
			CHANNELS 3 Zrotation Yrotation Xrotation
			JOINT RightLeg
			{
				OFFSET -2.542530 -6.985550 0.000000
				CHANNELS 3 Zrotation Yrotation Xrotation
				JOINT RightFoot
				{
					OFFSET -2.568260 -7.056230 0.000000
					CHANNELS 3 Zrotation Yrotation Xrotation
					JOINT RightToeBase
					{
						OFFSET -0.164730 -0.452590 2.363150
						CHANNELS 3 Zrotation Yrotation Xrotation
						End Site
						{
							OFFSET 0.000000 0.000000 0.000000
						}
					}
				}
			}
		}
	}
	JOINT LowerBack
	{
		OFFSET 0.000000 0.000000 0.000000
		CHANNELS 3 Zrotation Yrotation Xrotation
		JOINT Spine
		{
			OFFSET 0.028270 2.035590 -0.193380
			CHANNELS 3 Zrotation Yrotation Xrotation
			JOINT Spine1
			{
				OFFSET 0.056720 2.048850 -0.042750
				CHANNELS 3 Zrotation Yrotation Xrotation
				JOINT Neck
				{
					OFFSET 0.000000 0.000000 0.000000
					CHANNELS 3 Zrotation Yrotation Xrotation
					JOINT Neck1
					{
						OFFSET -0.054170 1.746240 0.172020
						CHANNELS 3 Zrotation Yrotation Xrotation
						JOINT Head
						{
							OFFSET 0.104070 1.761360 -0.123970
							CHANNELS 3 Zrotation Yrotation Xrotation
							End Site
							{
								OFFSET 0.000000 0.000000 0.000000
							}
						}
					}
				}
				JOINT LeftShoulder
				{
					OFFSET 0.000000 0.000000 0.000000
					CHANNELS 3 Zrotation Yrotation Xrotation
					JOINT LeftArm
					{
						OFFSET 3.362410 1.200890 -0.311210
						CHANNELS 3 Zrotation Yrotation Xrotation
						JOINT LeftForeArm
						{
							OFFSET 4.983000 -0.000000 -0.000000
							CHANNELS 3 Zrotation Yrotation Xrotation
							JOINT LeftHand
							{
								OFFSET 3.483560 -0.000000 -0.000000
								CHANNELS 3 Zrotation Yrotation Xrotation
								JOINT LeftFingerBase
								{
									OFFSET 0.000000 0.000000 0.000000
									CHANNELS 3 Zrotation Yrotation Xrotation
									JOINT LeftHandIndex1
									{
										OFFSET 0.715260 -0.000000 -0.000000
										CHANNELS 3 Zrotation Yrotation Xrotation
										End Site
										{
											OFFSET 0.000000 0.000000 0.000000
										}
									}
								}
								JOINT LThumb
								{
									OFFSET 0.000000 0.000000 0.000000
									CHANNELS 3 Zrotation Yrotation Xrotation
									End Site
									{
										OFFSET 0.000000 0.000000 0.000000
									}
								}
							}
						}
					}
				}
				JOINT RightShoulder
				{
					OFFSET 0.000000 0.000000 0.000000
					CHANNELS 3 Zrotation Yrotation Xrotation
					JOINT RightArm
					{
						OFFSET -3.136600 1.374050 -0.404650
						CHANNELS 3 Zrotation Yrotation Xrotation
						JOINT RightForeArm
						{
							OFFSET -5.241900 -0.000000 -0.000000
							CHANNELS 3 Zrotation Yrotation Xrotation
							JOINT RightHand
							{
								OFFSET -3.444170 -0.000000 -0.000000
								CHANNELS 3 Zrotation Yrotation Xrotation
								JOINT RightFingerBase
								{
									OFFSET 0.000000 0.000000 0.000000
									CHANNELS 3 Zrotation Yrotation Xrotation
									JOINT RightHandIndex1
									{
										OFFSET -0.622530 -0.000000 -0.000000
										CHANNELS 3 Zrotation Yrotation Xrotation
										End Site
										{
											OFFSET 0.000000 0.000000 0.000000
										}
									}
								}
								JOINT RThumb
								{
									OFFSET 0.000000 0.000000 0.000000
									CHANNELS 3 Zrotation Yrotation Xrotation
									End Site
									{
										OFFSET 0.000000 0.000000 0.000000
									}
								}
							}
						}
					}
				}
			}
		}
	}
}
MOTION
Frames: 5
Frame Time: 0.008333
-23.382263 4.556694 3.005591 -146.571879 -54.356869 -41.204676 -136.822056 -77.072376 10.626803 -4.342357 -14.001299 -65.110254 -165.984772 -76.208662 -21.199014 77.738295 -43.402489 -119.622095 1.430200 7.561800 21.390800 -4.169097 -1.768376 -178.849046 12.998583 72.714088 -116.820841 -34.155210 -50.316996 -66.808153 -31.175304 53.258542 126.279398 -3.667100 -11.703700 34.691600 -170.928068 67.798110 69.274832 177.285008 73.153275 -97.823920 -87.043253 27.461049 -102.457679 72.912473 61.243291 -45.048459 116.918522 -46.492653 3.763626 -3.349600 13.557600 15.677300 -7.115225 16.416651 -126.128925 153.544487 -68.038935 9.068465 -178.000662 -2.038512 50.298855 -138.892768 74.719474 167.646806 112.736226 -6.371509 -5.983499 -7.125000 0.000000 0.000000 -8.563400 6.863300 7.565800 115.461990 2.863429 -91.223133 142.273910 86.767898 -59.901300 -51.163802 49.470584 105.371665 -18.718876 -21.279337 -16.189897 -34.594134 -46.723131 5.937001 7.125000 0.000000 0.000000 23.282800 -60.005200 -8.810200 
-23.377003 4.554756 3.008359 -19.824317 -44.024990 -70.065800 73.919145 4.016980 -85.086436 -8.372566 -48.195591 126.972163 -11.424212 -27.667858 -167.391125 111.963369 -48.619980 161.253626 1.578200 7.925800 22.489000 122.395136 77.057932 -34.211935 117.161236 78.717534 -83.292064 -103.874948 21.426915 -101.040302 -49.311509 12.115385 65.682264 -2.774100 -10.320000 30.019400 99.153183 -18.989332 171.070275 81.688140 23.164490 78.936248 -72.324765 -60.117979 -96.889738 -158.960186 30.019755 -131.713302 8.648265 85.985404 -105.978520 -3.206500 13.722800 15.569300 96.041282 28.241767 -23.729106 -4.611749 56.012526 150.053085 -157.157955 80.634029 41.941085 36.443150 45.603662 -55.894418 56.447539 28.215927 -5.933800 -7.125000 0.000000 0.000000 -8.646300 6.864300 7.640600 53.153711 35.037806 -60.128985 -67.468176 28.083848 143.009340 -86.061637 10.766682 -129.602175 -51.853785 14.199256 -64.636911 -3.100569 -18.137487 5.837704 7.125000 0.000000 0.000000 23.395100 -59.902600 -8.797800 
-23.367867 4.553372 3.005037 -157.158773 -76.464519 98.872119 -31.801659 59.839404 -120.568613 114.073771 -72.792377 29.230805 166.219657 58.662600 -134.432752 -164.644570 -85.561670 7.956748 1.677900 8.160100 23.201600 138.160201 -87.647136 -149.510560 29.481882 71.189480 134.792938 80.695995 27.359646 -14.996983 136.911212 83.854192 -94.403892 -1.980200 -8.824600 25.248200 102.023083 68.255030 61.473760 57.423037 78.653010 -75.536269 23.363260 65.942840 169.272090 83.740920 34.026316 24.402572 -131.706661 10.468446 -117.060334 -3.236300 13.808200 15.456500 40.581794 -73.290525 73.376377 70.140217 9.300031 -137.587814 50.051439 -18.823788 -83.980942 124.620658 -6.618639 -25.985389 131.649523 -43.024729 -5.928400 -7.125000 0.000000 0.000000 -8.626600 6.926600 7.612300 161.969167 55.088012 -174.364641 -81.687600 -12.013224 -133.957017 0.121660 -47.972851 -112.388764 -16.630413 -50.114298 -24.820846 -40.878155 -74.542228 5.863300 7.125000 0.000000 0.000000 23.294900 -59.877500 -8.743500 
-23.370359 4.556140 2.997009 -26.291236 -80.367675 43.901194 -149.537788 -77.371930 -122.012691 -162.696115 -38.674550 -24.263391 71.444562 -44.844065 -3.685460 -110.022509 30.577557 37.857488 1.698400 8.207500 23.346000 -122.451864 -85.097132 -130.912974 73.681724 -17.392232 -23.741367 10.448582 -83.624019 20.012512 -150.062280 -16.057522 72.715643 -1.321500 -7.280500 20.549100 77.407646 -42.676939 -168.927591 117.930201 79.472677 -22.529670 -125.946320 28.433695 22.646747 -53.855350 47.902358 49.541840 -22.743169 -89.178174 -104.647702 -3.316900 13.800700 15.288000 153.233582 70.240204 -44.160504 36.939171 -40.478289 44.568074 -81.087483 76.335373 70.057740 85.561133 10.254753 -31.748412 93.122534 -22.930325 -5.959101 -7.125000 0.000000 0.000000 -8.589500 6.895100 7.584000 -94.981030 89.424216 -141.784765 -113.174843 -24.895725 -173.206983 -146.388894 9.790582 -103.245474 -34.137648 -13.366074 -17.758380 -39.022379 -32.528142 5.902600 7.125000 0.000000 0.000000 23.262200 -59.926900 -8.758000 
-23.382816 4.549219 2.998947 -23.736361 -60.111242 -162.694266 144.507484 76.462043 -140.228064 124.580368 10.923596 115.391050 55.206558 -66.655065 106.306586 -48.734119 -7.305156 -1.496777 1.404900 7.497400 21.197700 -158.392715 79.199789 128.776682 -150.954873 88.075902 -59.702636 -173.782273 87.553091 78.735535 27.234283 48.483825 161.605136 -0.804600 -5.724600 15.987400 33.631320 -24.516721 122.697487 -155.068516 68.019045 -90.549663 76.062565 8.027842 59.266403 -142.987333 55.055651 -51.127269 22.074154 -10.055643 -30.653481 -3.385500 13.806600 15.093800 -162.453576 -82.902026 -135.064072 -105.401938 -46.071269 -37.172086 110.929444 9.443551 -95.334590 38.729720 33.643889 5.333583 69.212988 -67.124064 -6.217400 -7.125000 0.000000 0.000000 -7.785600 7.622000 6.748400 -70.712246 86.032712 -102.454717 -70.628166 -57.207137 171.552960 102.273633 -8.451289 -95.822465 28.933657 -16.480657 16.648349 -36.232245 -26.393051 5.963499 7.125000 0.000000 0.000000 23.319900 -60.080800 -8.867500 
